<?xml version="1.0" encoding="utf-8"?>
<!-- Generator: Adobe Illustrator 25.2.0, SVG Export Plug-In . SVG Version: 6.00 Build 0)  -->
<svg version="1.1" id="Layer_1" xmlns="http://www.w3.org/2000/svg" xmlns:xlink="http://www.w3.org/1999/xlink" x="0px" y="0px"
	 viewBox="0 0 1600 1200" style="enable-background:new 0 0 1600 1200;" xml:space="preserve">
<style type="text/css">
	.st0{fill:#222222;}
	.st1{fill:#FFFFFF;}
</style>
<path class="st0" d="M1202.4,782.3h-831c-14.1,0-25.5-11.4-25.5-25.5V416.1c0-14.1,11.4-25.5,25.5-25.5h831
	c14.1,0,25.5,11.4,25.5,25.5v340.8C1227.8,770.9,1216.4,782.3,1202.4,782.3z"/>
<path class="st1" d="M618.4,645.8l-36.8-36.8V488.9c5.5-2.1,9.5-7.5,9.5-13.7c0-8.1-6.6-14.7-14.7-14.7c-8.1,0-14.7,6.6-14.7,14.7
	c0,6.4,4.1,11.8,9.8,13.9v163.5V676v0.9c0,4.3,1.6,8.3,4.7,11.3c3.1,3.1,7.2,4.6,11.2,4.6c4.1,0,8.1-1.5,11.2-4.6
	c6.2-6.2,6.2-16.3,0-22.5l-16.9-16.9v-25.2l29.6,29.6c13.1,13.2,13.1,34.6,0,47.7c-13.2,13.2-34.6,13.2-47.7,0
	c-6.4-6.4-9.9-14.8-9.9-23.9v-215c5.5-2.1,9.5-7.5,9.5-13.8c0-8.1-6.6-14.7-14.7-14.7c-8.1,0-14.7,6.6-14.7,14.7
	c0,6.4,4.1,11.8,9.8,13.9v108.8l-41.5-41.5v-52c0-11.7-4.6-22.8-12.9-31.1c-8.3-8.3-19.3-12.9-31.1-12.9c-11.7,0-22.8,4.6-31.1,12.9
	c-17.1,17.1-17.1,45,0,62.1l36.8,36.8v120.1c-5.6,2.1-9.6,7.5-9.6,13.8c0,8.1,6.6,14.7,14.7,14.7c8.1,0,14.7-6.6,14.7-14.7
	c0-6.3-4-11.7-9.7-13.8V555.4l17.8,17.8v119.1c-5.6,2.1-9.6,7.5-9.6,13.8c0,8.1,6.6,14.7,14.7,14.7c8.1,0,14.7-6.6,14.7-14.7
	c0-6.3-4-11.7-9.6-13.8V583.4l41.5,41.5v52c0,11.7,4.6,22.8,12.9,31.1c8.6,8.6,19.8,12.8,31.1,12.8c11.3,0,22.5-4.3,31.1-12.8
	C635.5,690.8,635.5,663,618.4,645.8z M576.4,469.1c3.4,0,6.1,2.7,6.1,6.1c0,3.4-2.7,6.1-6.1,6.1c-3.4,0-6.1-2.7-6.1-6.1
	C570.3,471.8,573,469.1,576.4,469.1z M591.4,672.9c2.2,2.2,2.2,5.8,0,8.1c-2.2,2.2-5.8,2.2-8.1,0c-1.1-1.1-1.7-2.5-1.7-4V676v-12.9
	L591.4,672.9z M468.8,685.2c-3.4,0-6.1-2.7-6.1-6.1c0-3.4,2.7-6.1,6.1-6.1c3.4,0,6.1,2.7,6.1,6.1
	C474.9,682.4,472.1,685.2,468.8,685.2z M496.8,712.2c-3.4,0-6.1-2.7-6.1-6.1c0-3.4,2.7-6.1,6.1-6.1c3.4,0,6.1,2.7,6.1,6.1
	C502.9,709.4,500.1,712.2,496.8,712.2z M543.4,610.5L434.1,501.2c-6.4-6.4-9.9-14.8-9.9-23.9c0-9,3.5-17.5,9.9-23.9
	c13.2-13.2,34.6-13.2,47.7,0c6.4,6.4,9.9,14.8,9.9,23.9v41.8l-17.8-17.8v-23.9c0-4.3-1.6-8.3-4.7-11.3c-6.2-6.2-16.3-6.2-22.5,0
	c-6.2,6.2-6.2,16.3,0,22.5l96.7,96.7V610.5z M463.7,477.4v13.7l-9.7-9.7c-2.2-2.2-2.2-5.8,0-8.1c2.2-2.2,5.8-2.2,8.1,0
	C463.1,474.4,463.7,475.8,463.7,477.4z M548.4,442.1c3.4,0,6.1,2.7,6.1,6.1c0,3.4-2.7,6.1-6.1,6.1c-3.4,0-6.1-2.7-6.1-6.1
	C542.3,444.8,545,442.1,548.4,442.1z"/>
<g>
	<g>
		<path class="st1" d="M708.5,527h37.4v-38.8h19.7v97h-19.7v-41.6h-37.4v41.6h-19.8v-97h19.8V527z"/>
		<path class="st1" d="M850.2,488.2l38.6,97h-21.4l-8.4-22.1h-40.3l-8.2,22.1h-20.6l38.3-97H850.2z M824.8,547.4H853l-7.8-22.3
			c-1-3.2-2.1-6.3-3-9.5c-1.1-3.6-2.2-7.1-3.2-10.9c-1,3.4-1.8,6.7-2.9,10c-1,3-1.9,6-3,9.2L824.8,547.4z"/>
		<path class="st1" d="M967.4,488.2v16.6h-34.1v23.1H966v15.9h-32.7v41.4h-19.8v-97H967.4z"/>
		<path class="st1" d="M1048.4,505.9c-1.4-0.5-2.8-1.2-4.1-1.8c-2.1-0.7-8.1-2.6-14.7-2.5c-0.8,0-11.6-0.3-15.3,6.5
			c-0.5,0.8-1.4,2.8-1.4,5.4c0,1.7,0.4,5.2,3.9,8c2.1,1.7,5.2,3,10.6,5.1c4.3,1.7,8.7,3.2,12.8,5.4c5.1,2.6,16.2,8.9,16.2,25
			c0,13.2-8,23.6-20.5,27.6c-4.9,1.5-10.3,1.9-15.4,1.9c-10.2,0-15.8-1.2-25.4-3.9l1.6-17.6c1.8,1,3.4,1.9,5.2,2.6
			c4.5,1.9,12,3.3,16.9,3.3c1.8,0,11.4,0.1,15.5-7.2c1.4-2.3,1.5-4.7,1.5-5.6c0-2.6-1-4.4-1.5-5.4c-1.9-3.6-5.1-5.1-12.4-8.1
			c-5-1.9-9.9-3.9-14.6-6.3c-9.3-5.1-14.6-12.2-14.6-23.2c0-3.7,0.4-13.1,8.4-20.3c9.3-8.5,22.1-8.2,25.7-8.2
			c9.2,0,14.3,1.1,23.2,3.3L1048.4,505.9z"/>
		<path class="st1" d="M1130.1,488.2l38.6,97h-21.4l-8.4-22.1h-40.3l-8.2,22.1h-20.6l38.3-97H1130.1z M1104.7,547.4h28.2l-7.8-22.3
			c-1-3.2-2.1-6.3-3-9.5c-1.1-3.6-2.2-7.1-3.2-10.9c-1,3.4-1.8,6.7-2.9,10c-1,3-1.9,6-3,9.2L1104.7,547.4z"/>
	</g>
	<g>
		<path class="st1" d="M815.2,671.7v-7.1c0.9,0.8,1.7,1.3,2.5,1.7c0.8,0.4,1.7,0.6,2.5,0.6c1.2,0,2.1-0.3,2.7-0.9
			c0.7-0.6,1-1.4,1-2.5c0-1.3-0.9-2.7-2.7-4.2c-0.5-0.4-0.9-0.8-1.1-1c-2.1-1.9-3.5-3.6-4.3-5.1c-0.8-1.5-1.2-3.2-1.2-5.1
			c0-3,0.8-5.3,2.5-7.2c1.7-1.8,3.8-2.7,6.5-2.7c1,0,1.9,0.1,2.8,0.4c0.9,0.3,1.9,0.7,2.9,1.3v6.1c-1.2-0.6-2.1-1-2.8-1.2
			s-1.3-0.3-1.8-0.3c-1,0-1.8,0.3-2.4,0.9c-0.6,0.6-0.9,1.4-0.9,2.4c0,0.9,0.2,1.7,0.7,2.4c0.5,0.8,1.6,1.9,3.3,3.4
			c2.3,2,3.8,3.6,4.4,4.9s1,2.9,1,4.7c0,3.1-0.9,5.6-2.6,7.4c-1.8,1.8-4.2,2.7-7.2,2.7c-1.2,0-2.2-0.1-3.2-0.4
			C817,672.6,816.1,672.2,815.2,671.7z"/>
		<path class="st1" d="M863.8,656.3c0,5.2-1.1,9.4-3.3,12.4c-2.2,3.1-5.1,4.6-8.8,4.6c-3.8,0-6.7-1.5-8.8-4.6
			c-2.1-3.1-3.2-7.4-3.2-12.9c0-5.5,1.1-9.8,3.2-12.9c2.1-3.1,5.1-4.7,8.8-4.7c3.8,0,6.7,1.6,8.8,4.8
			C862.8,646.2,863.8,650.6,863.8,656.3z M851.8,666.8c1.8,0,3.1-0.9,3.9-2.7c0.9-1.8,1.3-4.6,1.3-8.3c0-3.7-0.4-6.5-1.3-8.3
			c-0.9-1.8-2.2-2.7-3.9-2.7c-1.8,0-3.1,0.9-3.9,2.7c-0.9,1.8-1.3,4.6-1.3,8.3c0,3.7,0.4,6.5,1.3,8.3
			C848.7,665.9,850,666.8,851.8,666.8z"/>
		<path class="st1" d="M874.3,672.9v-34.2H889v6.3h-8.2v7.1h7.5v6.3h-7.5v14.5H874.3z"/>
		<path class="st1" d="M902.4,672.9V645h-5.2v-6.3h17.3v6.3h-5.2v27.9H902.4z"/>
		<path class="st1" d="M921.4,638.6h6.9l2.4,15.5c0.2,1.4,0.4,2.9,0.6,4.7c0.2,1.7,0.3,3.6,0.4,5.8l4.5-25.9h5.7l4.5,25.9
			c0-1.5,0.1-3.1,0.2-4.7c0.1-1.6,0.3-3.2,0.6-4.8l2.5-16.4h6.7l-6.9,34.2h-6L940,654c-0.2-0.9-0.3-2.1-0.5-3.4
			c-0.1-1.3-0.2-2.8-0.3-4.3c-0.2,1.7-0.3,3.2-0.5,4.5c-0.2,1.3-0.3,2.4-0.4,3.1l-3.8,18.9h-6.1L921.4,638.6z"/>
		<path class="st1" d="M961.6,672.9l8-34.2h7.2l7.6,34.2h-6.8l-1.1-6h-6.9l-1.1,6H961.6z M970.8,661.5h4.5c-0.5-2.4-0.9-4.9-1.3-7.5
			c-0.4-2.6-0.7-5.4-1-8.3c-0.3,2.6-0.7,5.2-1.1,7.8C971.6,656.2,971.2,658.8,970.8,661.5z"/>
		<path class="st1" d="M993,672.9v-34.2h7.1c3.9,0,6.7,0.8,8.5,2.3c1.8,1.5,2.6,4,2.6,7.3c0,2.4-0.4,4.4-1.3,5.9
			c-0.9,1.5-2.3,2.5-4.1,3.1l6.6,15.6h-7.2l-5.6-14.2v14.2H993z M999.6,653.5c0.1,0,0.2,0,0.4,0c0.2,0,0.3,0,0.4,0
			c1.5,0,2.6-0.4,3.4-1.2c0.8-0.8,1.1-2,1.1-3.7c0-1.6-0.3-2.8-1-3.6c-0.7-0.8-1.8-1.1-3.3-1.1c-0.2,0-0.4,0-0.5,0
			c-0.1,0-0.2,0-0.4,0L999.6,653.5z"/>
		<path class="st1" d="M1021.3,672.9v-34.2h14.4v6.3h-7.8v6.9h7.1v6.3h-7.1v8h7.8v6.7H1021.3z"/>
	</g>
	<path class="st1" d="M803.2,663.1c-38.2-2.3-76.3-4.6-114.5-6.9c38.2-2.5,76.3-5,114.5-7.5V663.1z"/>
	<path class="st1" d="M1056.4,648.7c38.2,2.3,76.3,4.6,114.5,6.9c-38.2,2.5-76.3,5-114.5,7.5V648.7z"/>
</g>
</svg>
